name rise49.25peak52.1432fall72.8391.mot
datacolumns 19
datarows 26
range 7.41497200000000 7.45663800000000
endheader
time	ground_force1_vx	ground_force1_vy	ground_force1_vz	ground_force1_px	ground_force1_py	ground_force1_pz	ground_force2_vx	ground_force2_vy	ground_force2_vz	ground_force2_px	ground_force2_py	ground_force2_pz	ground_torque1_x	ground_torque1_y	ground_torque1_z	ground_torque2_x	ground_torque2_y	ground_torque2_z	
7.41497200000000	-4.07860100000000	41.68956200000000	-5.00853100000000	0.31427200000000	0.00000000000000	0.11255300000000	-40.03020600000000	796.36834499999998	-62.36250300000000	0.12892900000000	0.00000000000000	-0.09779500000000	0.00000000000000	-2.85726700000000	0.00000000000000	0.00000000000000	-22.10336900000000	0.00000000000000	
7.41663300000000	-4.42160200000000	48.73591300000000	-5.59034700000000	0.31899900000000	0.00000000000000	0.11322800000000	-40.71970500000000	794.41624800000000	-62.03513200000000	0.12813000000000	0.00000000000000	-0.09765700000000	0.00000000000000	-3.24831500000000	0.00000000000000	0.00000000000000	-22.05236400000000	0.00000000000000	
7.41830300000000	-4.67022300000000	55.83624300000000	-6.10281200000000	0.32328500000000	0.00000000000000	0.11385100000000	-41.43290800000000	792.36746700000003	-61.69220900000000	0.12732700000000	0.00000000000000	-0.09751500000000	0.00000000000000	-3.61216400000000	0.00000000000000	0.00000000000000	-22.00448200000000	0.00000000000000	
7.41997300000000	-4.81184400000000	62.89585900000000	-6.53209000000000	0.32719500000000	0.00000000000000	0.11443000000000	-42.16949100000000	790.21925199999998	-61.33360800000000	0.12652300000000	0.00000000000000	-0.09737100000000	0.00000000000000	-3.94016900000000	0.00000000000000	0.00000000000000	-21.95971700000000	0.00000000000000	
7.42163900000000	-4.83865800000000	69.84380400000001	-6.86909300000000	0.33078300000000	0.00000000000000	0.11497000000000	-42.92902400000000	787.96872299999995	-60.95920900000000	0.12571700000000	0.00000000000000	-0.09722400000000	0.00000000000000	-4.22620100000000	0.00000000000000	0.00000000000000	-21.91803800000000	0.00000000000000	
7.42330200000000	-4.74759500000000	76.63493800000001	-7.10950000000000	0.33409100000000	0.00000000000000	0.11547700000000	-43.71096000000000	785.61287600000003	-60.56889400000000	0.12490900000000	0.00000000000000	-0.09707500000000	0.00000000000000	-4.46675900000000	0.00000000000000	0.00000000000000	-21.87939400000000	0.00000000000000	
7.42496600000000	-4.53988400000000	83.24954000000000	-7.25340400000000	0.33715600000000	0.00000000000000	0.11595500000000	-44.51464300000000	783.14858400000003	-60.16254900000000	0.12410100000000	0.00000000000000	-0.09692200000000	0.00000000000000	-4.66084300000000	0.00000000000000	0.00000000000000	-21.84371000000000	0.00000000000000	
7.42663400000000	-4.22034000000000	89.69089800000000	-7.30463800000000	0.34000600000000	0.00000000000000	0.11640700000000	-45.33930100000000	780.57261200000005	-59.74007100000000	0.12329100000000	0.00000000000000	-0.09676700000000	0.00000000000000	-4.80964500000000	0.00000000000000	0.00000000000000	-21.81088600000000	0.00000000000000	
7.42830100000000	-3.79648600000000	95.98141200000001	-7.26993300000000	0.34266800000000	0.00000000000000	0.11683500000000	-46.18404500000000	777.88161600000001	-59.30136100000000	0.12248200000000	0.00000000000000	-0.09660900000000	0.00000000000000	-4.91611300000000	0.00000000000000	0.00000000000000	-21.78080200000000	0.00000000000000	
7.42997200000000	-3.27761300000000	102.15780700000001	-7.15796500000000	0.34516200000000	0.00000000000000	0.11724300000000	-47.04787200000000	775.07216100000005	-58.84633000000000	0.12167400000000	0.00000000000000	-0.09644800000000	0.00000000000000	-4.98444500000000	0.00000000000000	0.00000000000000	-21.75331200000000	0.00000000000000	
7.43163800000000	-2.67386200000000	108.26600100000000	-6.97842600000000	0.34750500000000	0.00000000000000	0.11763300000000	-47.92966200000000	772.14072399999998	-58.37490100000000	0.12086700000000	0.00000000000000	-0.09628400000000	0.00000000000000	-5.01956700000000	0.00000000000000	0.00000000000000	-21.72824800000000	0.00000000000000	
7.43330200000000	-1.99539800000000	114.35611400000001	-6.74116500000000	0.34971400000000	0.00000000000000	0.11800500000000	-48.82818000000000	769.08370700000000	-57.88700800000000	0.12006100000000	0.00000000000000	-0.09611700000000	0.00000000000000	-5.02664600000000	0.00000000000000	0.00000000000000	-21.70541900000000	0.00000000000000	
7.43497400000000	-1.25173700000000	120.47797799999999	-6.45546700000000	0.35180100000000	0.00000000000000	0.11836200000000	-49.74207500000000	765.89745200000004	-57.38259800000000	0.11925700000000	0.00000000000000	-0.09594800000000	0.00000000000000	-5.01066400000000	0.00000000000000	0.00000000000000	-21.68461200000000	0.00000000000000	
7.43663900000000	-0.45123900000000	126.67742900000000	-6.12950100000000	0.35377700000000	0.00000000000000	0.11870500000000	-50.66988400000000	762.57824600000004	-56.86163300000000	0.11845600000000	0.00000000000000	-0.09577500000000	0.00000000000000	-4.97608200000000	0.00000000000000	0.00000000000000	-21.66558900000000	0.00000000000000	
7.43830600000000	0.39921400000000	132.99352099999999	-5.76995400000000	0.35565100000000	0.00000000000000	0.11903600000000	-51.61003000000000	759.12234200000000	-56.32409200000000	0.11765900000000	0.00000000000000	-0.09560000000000	0.00000000000000	-4.92659800000000	0.00000000000000	0.00000000000000	-21.64809300000000	0.00000000000000	
7.43996800000000	1.29436800000000	139.45672099999999	-5.38183400000000	0.35743300000000	0.00000000000000	0.11935400000000	-52.56082800000000	755.52596900000003	-55.76997200000000	0.11686500000000	0.00000000000000	-0.09542200000000	0.00000000000000	-4.86501700000000	0.00000000000000	0.00000000000000	-21.63184500000000	0.00000000000000	
7.44163900000000	2.23058800000000	146.08803200000000	-4.96844500000000	0.35912800000000	0.00000000000000	0.11966200000000	-53.52048600000000	751.78535099999999	-55.19929000000000	0.11607600000000	0.00000000000000	-0.09524100000000	0.00000000000000	-4.79319800000000	0.00000000000000	0.00000000000000	-21.61654600000000	0.00000000000000	
7.44330500000000	3.20572600000000	152.89896300000001	-4.53149000000000	0.36074300000000	0.00000000000000	0.11995900000000	-54.48710500000000	747.89671699999997	-54.61208200000000	0.11529200000000	0.00000000000000	-0.09505800000000	0.00000000000000	-4.71209400000000	0.00000000000000	0.00000000000000	-21.60187500000000	0.00000000000000	
7.44497300000000	4.21889600000000	159.89216800000000	-4.07127800000000	0.36228300000000	0.00000000000000	0.12024600000000	-55.45869100000000	743.85632799999996	-54.00840800000000	0.11451300000000	0.00000000000000	-0.09487100000000	0.00000000000000	-4.62184800000000	0.00000000000000	0.00000000000000	-21.58749600000000	0.00000000000000	
7.44663500000000	5.27018400000000	167.06260599999999	-3.58700000000000	0.36375200000000	0.00000000000000	0.12052500000000	-56.43315000000000	739.66048400000000	-53.38835100000000	0.11374100000000	0.00000000000000	-0.09468200000000	0.00000000000000	-4.52193400000000	0.00000000000000	0.00000000000000	-21.57305200000000	0.00000000000000	
7.44830100000000	6.36033700000000	174.39902900000001	-3.07703900000000	0.36515400000000	0.00000000000000	0.12079500000000	-57.40829700000000	735.30555500000003	-52.75201900000000	0.11297500000000	0.00000000000000	-0.09449000000000	0.00000000000000	-4.41132800000000	0.00000000000000	0.00000000000000	-21.55817000000000	0.00000000000000	
7.44996800000000	7.49045000000000	181.88562400000001	-2.53928800000000	0.36649200000000	0.00000000000000	0.12105700000000	-58.38186100000000	730.78799000000004	-52.09954800000000	0.11221600000000	0.00000000000000	-0.09429500000000	0.00000000000000	-4.28867700000000	0.00000000000000	0.00000000000000	-21.54246200000000	0.00000000000000	
7.45164100000000	8.66168000000000	189.50366399999999	-1.97144500000000	0.36776800000000	0.00000000000000	0.12131200000000	-59.35149000000000	726.10434799999996	-51.43109700000000	0.11146400000000	0.00000000000000	-0.09409800000000	0.00000000000000	-4.15247700000000	0.00000000000000	0.00000000000000	-21.52552500000000	0.00000000000000	
7.45330800000000	9.87499900000000	197.23304899999999	-1.37127700000000	0.36898600000000	0.00000000000000	0.12156000000000	-60.31475700000000	721.25130999999999	-50.74685900000000	0.11072100000000	0.00000000000000	-0.09389700000000	0.00000000000000	-4.00121500000000	0.00000000000000	0.00000000000000	-21.50694200000000	0.00000000000000	
7.45497400000000	11.13099600000000	205.05363199999999	-0.73682600000000	0.37014600000000	0.00000000000000	0.12180000000000	-61.26916700000000	716.22570900000005	-50.04705100000000	0.10998500000000	0.00000000000000	-0.09369400000000	0.00000000000000	-3.83350200000000	0.00000000000000	0.00000000000000	-21.48628700000000	0.00000000000000	
7.45663800000000	12.42974500000000	212.94629499999999	-0.06657200000000	0.37125000000000	0.00000000000000	0.12203500000000	-62.21216200000000	711.02454399999999	-49.33192400000000	0.10925800000000	0.00000000000000	-0.09348800000000	0.00000000000000	-3.64816700000000	0.00000000000000	0.00000000000000	-21.46312100000000	0.00000000000000	
